<svg id="SvgjsSvg1041" width="288" height="288" xmlns="http://www.w3.org/2000/svg" version="1.1" xmlns:xlink="http://www.w3.org/1999/xlink" xmlns:svgjs="http://svgjs.com/svgjs"><defs id="SvgjsDefs1042"></defs><g id="SvgjsG1043"><svg xmlns="http://www.w3.org/2000/svg" fill="none" viewBox="0 0 24 24" width="288" height="288"><path fill="#27293f" fill-rule="evenodd" d="M7 2C7 1.44772 6.55228 1 6 1C5.44772 1 5 1.44772 5 2V3H4C2.34315 3 1 4.34315 1 6V20C1 21.6569 2.34315 23 4 23H20C21.6569 23 23 21.6569 23 20V6C23 4.34315 21.6569 3 20 3H19V2C19 1.44772 18.5523 1 18 1C17.4477 1 17 1.44772 17 2V3H7V2ZM21 20V6C21 5.44772 20.5523 5 20 5H4C3.44772 5 3 5.44772 3 6V20C3 20.5523 3.44772 21 4 21H20C20.5523 21 21 20.5523 21 20ZM6.5 12C7.32843 12 8 11.3284 8 10.5C8 9.67157 7.32843 9 6.5 9C5.67157 9 5 9.67157 5 10.5C5 11.3284 5.67157 12 6.5 12ZM8 16.5C8 17.3284 7.32843 18 6.5 18C5.67157 18 5 17.3284 5 16.5C5 15.6716 5.67157 15 6.5 15C7.32843 15 8 15.6716 8 16.5ZM12 12C12.8284 12 13.5 11.3284 13.5 10.5C13.5 9.67157 12.8284 9 12 9C11.1716 9 10.5 9.67157 10.5 10.5C10.5 11.3284 11.1716 12 12 12ZM13.5 16.5C13.5 17.3284 12.8284 18 12 18C11.1716 18 10.5 17.3284 10.5 16.5C10.5 15.6716 11.1716 15 12 15C12.8284 15 13.5 15.6716 13.5 16.5ZM17.5 12C18.3284 12 19 11.3284 19 10.5C19 9.67157 18.3284 9 17.5 9C16.6716 9 16 9.67157 16 10.5C16 11.3284 16.6716 12 17.5 12Z" clip-rule="evenodd" class="color000 svgShape"></path></svg></g></svg>