<svg id="SvgjsSvg1026" width="288" height="288" xmlns="http://www.w3.org/2000/svg" version="1.1" xmlns:xlink="http://www.w3.org/1999/xlink" xmlns:svgjs="http://svgjs.com/svgjs"><defs id="SvgjsDefs1027"></defs><g id="SvgjsG1028"><svg xmlns="http://www.w3.org/2000/svg" fill="none" viewBox="0 0 24 24" width="288" height="288"><path fill="#6b04fd" fill-rule="evenodd" d="M12 1C9.60733 1 7.31629 1.96747 5.62986 3.68375C3.94403 5.39943 3 7.72272 3 10.1416C3 12.8773 4.08675 15.501 6.02117 17.4354L11.2929 22.7071C11.4804 22.8946 11.7348 23 12 23C12.2652 23 12.5196 22.8946 12.7071 22.7071L17.9788 17.4354C19.9132 15.501 21 12.8773 21 10.1416C21 7.72272 20.056 5.39943 18.3701 3.68375C16.6837 1.96748 14.3927 1 12 1ZM12 13C13.6569 13 15 11.6569 15 10C15 8.34315 13.6569 7 12 7C10.3431 7 9 8.34315 9 10C9 11.6569 10.3431 13 12 13Z" clip-rule="evenodd" class="color000 svgShape"></path></svg></g></svg>