<svg id="SvgjsSvg1011" width="288" height="288" xmlns="http://www.w3.org/2000/svg" version="1.1" xmlns:xlink="http://www.w3.org/1999/xlink" xmlns:svgjs="http://svgjs.com/svgjs"><defs id="SvgjsDefs1012"></defs><g id="SvgjsG1013"><svg xmlns="http://www.w3.org/2000/svg" fill="none" viewBox="0 0 24 24" width="288" height="288"><path fill="#6b04fd" fill-rule="evenodd" d="M12 1C9.60733 1 7.31629 1.96747 5.62986 3.68375C3.94403 5.39943 3 7.72272 3 10.1416C3 12.8773 4.08675 15.501 6.02117 17.4354L11.2929 22.7071C11.4804 22.8946 11.7348 23 12 23C12.2652 23 12.5196 22.8946 12.7071 22.7071L17.9788 17.4354C19.9132 15.501 21 12.8773 21 10.1416C21 7.72272 20.056 5.39943 18.3701 3.68375C16.6837 1.96748 14.3927 1 12 1ZM7.05643 5.0855C8.37059 3.74808 10.1492 3 12 3C13.8508 3 15.6294 3.74808 16.9436 5.0855C18.2583 6.42352 19 8.24194 19 10.1416C19 12.3469 18.124 14.4618 16.5646 16.0212L12 20.5858L7.43539 16.0212C5.87603 14.4618 5 12.3469 5 10.1416C5 8.24194 5.74168 6.42352 7.05643 5.0855ZM10 10C10 8.89543 10.8954 8 12 8C13.1046 8 14 8.89543 14 10C14 11.1046 13.1046 12 12 12C10.8954 12 10 11.1046 10 10ZM12 6C9.79086 6 8 7.79086 8 10C8 12.2091 9.79086 14 12 14C14.2091 14 16 12.2091 16 10C16 7.79086 14.2091 6 12 6Z" clip-rule="evenodd" class="color000 svgShape"></path></svg></g></svg>