<svg id="SvgjsSvg1026" width="288" height="288" xmlns="http://www.w3.org/2000/svg" version="1.1" xmlns:xlink="http://www.w3.org/1999/xlink" xmlns:svgjs="http://svgjs.com/svgjs"><defs id="SvgjsDefs1027"></defs><g id="SvgjsG1028"><svg xmlns="http://www.w3.org/2000/svg" viewBox="0 0 32 32" width="288" height="288"><g transform="translate(1466.265 -730.882)" fill="#000000" class="color000 svgShape"><path fill="#27293f" fill-rule="evenodd" d="m -1456.2637,-267.72852 -1.7226,0.31446 c -2.3027,0.4185 -4.1534,2.13664 -4.7383,4.40234 l -1.0391,4.0332 h 27 l -1.041,-4.0332 c -0.5848,-2.2657 -2.4356,-3.98384 -4.7383,-4.40234 l -1.7226,-0.31446 h -4.3614 l -1.6367,1.5 -1.6367,-1.5 z" transform="translate(0 1020.362)" class="color91a6b8 svgShape"></path><path fill="#ffcd99" fill-rule="evenodd" d="m -1444.9904,743.88993 c 0.084,0.1998 0.1178,0.4204 0.093,0.6422 l -0.068,0.5995 c -0.046,0.404 -0.2081,0.7738 -0.5626,0.983 l -0.1922,0.1134 c -0.2275,0.1342 -0.4088,0.3324 -0.5204,0.5691 l -1.0962,2.3252 c -0.5062,1.0738 -1.6007,1.761 -2.8047,1.761 h -0.2462 c -1.204,0 -2.2984,-0.6872 -2.8046,-1.761 l -1.0962,-2.3252 c -0.1116,-0.2367 -0.2929,-0.4349 -0.5204,-0.5691 l -0.1922,-0.1134 c -0.3546,-0.2092 -0.517,-0.579 -0.5626,-0.983 l -0.068,-0.5995 c -0.025,-0.2218 0.01,-0.4424 0.093,-0.6422 z" class="colorffd7dd svgShape"></path><path fill="#060a3e" fill-rule="evenodd" d="M-1452.2646 756.88333l-2.5-4.5 1.5-1 3 3zM-1448.1391 756.88333l2.5-4.5-1.5-1-3 3z" class="colora0a0a0 svgShape"></path><path fill="#000000" fill-rule="evenodd" style="line-height:normal;font-variant-ligatures:normal;font-variant-position:normal;font-variant-caps:normal;font-variant-numeric:normal;font-variant-alternates:normal;font-feature-settings:normal;text-indent:0;text-align:start;text-decoration-line:none;text-decoration-style:solid;text-decoration-color:#000;text-transform:none;text-orientation:mixed;shape-padding:0;isolation:auto;mix-blend-mode:normal" d="m -1450.7637,754.13281 v 7.75 h 1 v -7.75 z" color="#000" font-family="sans-serif" font-weight="400" overflow="visible" class="color586597 svgShape"></path><path fill="#000000" fill-rule="evenodd" style="line-height:normal;font-variant-ligatures:normal;font-variant-position:normal;font-variant-caps:normal;font-variant-numeric:normal;font-variant-alternates:normal;font-feature-settings:normal;text-indent:0;text-align:start;text-decoration-line:none;text-decoration-style:solid;text-decoration-color:#000;text-transform:none;text-orientation:mixed;shape-padding:0;isolation:auto;mix-blend-mode:normal" d="m -1453.2715,750.88281 a 0.50005,0.50005 0 0 0 -0.2695,0.084 l -1.5,1 a 0.50005,0.50005 0 0 0 -0.1602,0.66015 l 2.5,4.5 0.8731,-0.48633 -2.2754,-4.09765 0.7754,-0.51563 2.7109,2.70899 a 0.50005,0.50005 0 0 0 0.707,0 l 2.709,-2.70899 0.7754,0.51563 -2.2754,4.09765 0.8731,0.48633 2.5,-4.5 a 0.50005,0.50005 0 0 0 -0.1582,-0.66015 l -1.5,-1 a 0.50005,0.50005 0 0 0 -0.6309,0.0625 l -2.6465,2.64648 -2.6465,-2.64648 a 0.50005,0.50005 0 0 0 -0.3613,-0.14649 z" color="#000" font-family="sans-serif" font-weight="400" overflow="visible" class="color586597 svgShape"></path><path fill="#e6b235" fill-rule="evenodd" d="m -1460.3896,753.88333 1,2.25 2.5,-1 -0.75,-2 z" class="colorfbd67e svgShape"></path><path fill="#000000" fill-rule="evenodd" style="line-height:normal;font-variant-ligatures:normal;font-variant-position:normal;font-variant-caps:normal;font-variant-numeric:normal;font-variant-alternates:normal;font-feature-settings:normal;text-indent:0;text-align:start;text-decoration-line:none;text-decoration-style:solid;text-decoration-color:#000;text-transform:none;text-orientation:mixed;shape-padding:0;isolation:auto;mix-blend-mode:normal" d="m -1457.1719,752.95703 -0.9355,0.35156 0.5781,1.54297 -1.5996,0.63867 -0.8047,-1.81054 -0.9121,0.40625 1,2.25 a 0.50005,0.50005 0 0 0 0.6426,0.26172 l 2.5,-1 a 0.50005,0.50005 0 0 0 0.2812,-0.64063 z" color="#000" font-family="sans-serif" font-weight="400" overflow="visible" class="color586597 svgShape"></path><path fill="#060a3e" fill-rule="evenodd" d="m -1447.0137,-261.29102 v 2.25 l 1,0.0625 h 3 v -2.3125 z" transform="translate(0 1020.362)" class="colora0a0a0 svgShape"></path><path fill="#e6b235" fill-rule="evenodd" d="m -1440.1615,753.88333 -1,2.25 -2.5,-1 0.75,-2 z" class="colorfbd67e svgShape"></path><path fill="#000000" fill-rule="evenodd" style="line-height:normal;font-variant-ligatures:normal;font-variant-position:normal;font-variant-caps:normal;font-variant-numeric:normal;font-variant-alternates:normal;font-feature-settings:normal;text-indent:0;text-align:start;text-decoration-line:none;text-decoration-style:solid;text-decoration-color:#000;text-transform:none;text-orientation:mixed;shape-padding:0;isolation:auto;mix-blend-mode:normal" d="m -1456.2695,752.13281 a 0.50004997,0.50004997 0 0 0 -0.084,0.01 l -1.7227,0.3125 c -2.4933,0.45315 -4.4975,2.3181 -5.1308,4.77148 l -1.041,4.03125 a 0.50004997,0.50004997 0 0 0 0.4843,0.625 h 27 a 0.50004997,0.50004997 0 0 0 0.4825,-0.625 l -1.0391,-4.03125 c -0.6333,-2.45341 -2.6395,-4.31833 -5.1328,-4.77148 l -1.7227,-0.3125 a 0.50031899,0.50031899 0 1 0 -0.1797,0.98437 l 1.7246,0.3125 c 2.1121,0.38385 3.8055,1.95913 4.3418,4.03711 l 0.8789,3.40625 h -25.7089 l 0.8789,-3.40625 c 0.5364,-2.07801 2.2297,-3.65326 4.3418,-4.03711 l 1.7246,-0.3125 a 0.50004997,0.50004997 0 0 0 -0.096,-0.99414 z" color="#000" font-family="sans-serif" font-weight="400" overflow="visible" class="color586597 svgShape"></path><path fill="#000000" fill-rule="evenodd" style="line-height:normal;font-variant-ligatures:normal;font-variant-position:normal;font-variant-caps:normal;font-variant-numeric:normal;font-variant-alternates:normal;font-feature-settings:normal;text-indent:0;text-align:start;text-decoration-line:none;text-decoration-style:solid;text-decoration-color:#000;text-transform:none;text-orientation:mixed;shape-padding:0;isolation:auto;mix-blend-mode:normal" d="M-1443.3574 752.95898l-.75 2a.50004997.50004997 0 0 0 .2812.63868l2.5 1a.50004997.50004997 0 0 0 .6426-.25977l1-2.25-.9141-.40625-.8027 1.80859-1.5996-.63867.5781-1.54101zM-1450.2656 731.88173a.50005.50005 0 0 0-.1895.0391l-6 2.5a.50005.50005 0 0 0-.2558.23829l-1.5 3a.50005.50005 0 0 0 .061.54101l2.1367 2.61133v1.57031a.50005.50005 0 0 0 .5.5h10.5a.50005.50005 0 0 0 .5-.5v-1.57031l2.1367-2.61133a.50005.50005 0 0 0 .061-.54101l-1.5-3a.50005.50005 0 0 0-.2559-.23829l-6-2.5a.50005.50005 0 0 0-.1933-.0391z" color="#000" font-family="sans-serif" font-weight="400" overflow="visible" class="color586597 svgShape"></path><path fill="#27293f" fill-rule="evenodd" d="m -1450.2637,732.9247 5.6367,2.34766 1.2715,2.54492 -1.6601,2.02734 c -0.6735,-0.50547 -1.6784,-0.83712 -2.8926,-1.03711 0.111,-0.50503 0.1445,-1.05939 0.1445,-1.70703 a 0.50004997,0.50004997 0 0 0 -0.2832,-0.45117 l -2,-0.9668 a 0.50004997,0.50004997 0 0 0 -0.2422,-0.0488 0.50004997,0.50004997 0 0 0 -0.1914,0.0488 l -2,0.9668 a 0.50004997,0.50004997 0 0 0 -0.2832,0.45117 c 0,0.64589 0.03,1.19917 0.1407,1.70313 -1.221,0.20178 -2.2097,0.54012 -2.8809,1.05078 l -1.668,-2.03711 1.2715,-2.54492 z" color="#000" font-family="sans-serif" font-weight="400" overflow="visible" style="line-height:normal;font-variant-ligatures:normal;font-variant-position:normal;font-variant-caps:normal;font-variant-numeric:normal;font-variant-alternates:normal;font-feature-settings:normal;text-indent:0;text-align:start;text-decoration-line:none;text-decoration-style:solid;text-decoration-color:#000;text-transform:none;text-orientation:mixed;shape-padding:0;isolation:auto;mix-blend-mode:normal" class="color91a6b8 svgShape"></path><path fill="#e6b235" fill-rule="evenodd" d="m -1450.2637,736.68837 1.4571,0.70508 c -0.019,0.73354 -0.059,1.34434 -0.252,1.74414 -0.1876,0.38881 -0.6304,0.72383 -1.2051,1.08789 -0.5746,-0.36406 -1.0174,-0.69908 -1.2051,-1.08789 -0.1929,-0.3998 -0.2334,-1.01061 -0.2519,-1.74414 z" color="#000" font-family="sans-serif" font-weight="400" overflow="visible" style="line-height:normal;font-variant-ligatures:normal;font-variant-position:normal;font-variant-caps:normal;font-variant-numeric:normal;font-variant-alternates:normal;font-feature-settings:normal;text-indent:0;text-align:start;text-decoration-line:none;text-decoration-style:solid;text-decoration-color:#000;text-transform:none;text-orientation:mixed;shape-padding:0;isolation:auto;mix-blend-mode:normal" class="colorfbd67e svgShape"></path><path fill="#060a3e" fill-rule="evenodd" d="m -1452.2734,739.72939 c 0.3499,0.62004 0.919,1.12066 1.7675,1.58984 a 0.50004997,0.50004997 0 0 0 0.4844,0 c 0.838,-0.46331 1.4026,-0.95721 1.7539,-1.56641 a 0.50004997,0.50004997 0 0 0 0.098,0.0215 c 1.1698,0.18281 2.1033,0.52942 2.5605,0.875 a 0.50058808,0.50058808 0 0 0 0.096,0.0566 v 1.17578 h -9.5 v -1.15625 a 0.5005925,0.5005925 0 0 0 0.01,-0.006 c 0.4074,-0.35184 1.3515,-0.7348 2.5664,-0.93359 a 0.50004997,0.50004997 0 0 0 0.1661,-0.0566 z" color="#000" font-family="sans-serif" font-weight="400" overflow="visible" style="line-height:normal;font-variant-ligatures:normal;font-variant-position:normal;font-variant-caps:normal;font-variant-numeric:normal;font-variant-alternates:normal;font-feature-settings:normal;text-indent:0;text-align:start;text-decoration-line:none;text-decoration-style:solid;text-decoration-color:#000;text-transform:none;text-orientation:mixed;shape-padding:0;isolation:auto;mix-blend-mode:normal" class="colora0a0a0 svgShape"></path><path fill="#000000" fill-rule="evenodd" style="line-height:normal;font-variant-ligatures:normal;font-variant-position:normal;font-variant-caps:normal;font-variant-numeric:normal;font-variant-alternates:normal;font-feature-settings:normal;text-indent:0;text-align:start;text-decoration-line:none;text-decoration-style:solid;text-decoration-color:#000;text-transform:none;text-orientation:mixed;shape-padding:0;isolation:auto;mix-blend-mode:normal" d="M-1455.5469 743.38281a.50004997.50004997 0 0 0-.4531.31446c-.1139.27422-.1639.58054-.1289.89062l.068.59961c.057.50168.2855 1.05114.8046 1.35742l.1934.11328c.1421.0838.2538.20642.3223.35157l1.0957 2.32617c.5896 1.2508 1.8616 2.04687 3.2558 2.04687h.2481c1.3942 0 2.6662-.79605 3.2558-2.04687l1.0957-2.32617c.068-.14515.1802-.26776.3223-.35157l.1934-.11328c.5191-.30637.7476-.85631.8046-1.35742l.068-.59961c.034-.30804-.013-.61574-.1289-.89258a.50024094.50024094 0 1 0-.9219.38867c.052.12277.072.25703.057.39258l-.068.59766c-.035.30689-.1285.49734-.3183.60937l-.1934.11329c-.3129.18459-.564.45885-.7188.7871l-1.0957 2.32422c-.4227.89678-1.3378 1.47461-2.3515 1.47461h-.2481c-1.0137 0-1.9288-.57781-2.3515-1.47461l-1.0957-2.32422c-.1548-.32825-.4059-.60251-.7188-.7871l-.1914-.11329c-.19-.11211-.2857-.3011-.3203-.60742l-.068-.59961c-.015-.13352.01-.26915.059-.39453a.50004997.50004997 0 0 0-.4707-.69922zM-1447.5137 758.57031v2.75h1v-1.75h3v2h1v-3z" color="#000" font-family="sans-serif" font-weight="400" overflow="visible" class="color586597 svgShape"></path></g></svg></g></svg>