<svg xmlns="http://www.w3.org/2000/svg" xmlns:xlink="http://www.w3.org/1999/xlink" width="1080" height="1080" viewBox="0 0 1080 1080">
  <defs>
    <clipPath id="clip-uspCrimeType">
      <rect width="1080" height="1080"/>
    </clipPath>
  </defs>
  <g id="uspCrimeType" clip-path="url(#clip-uspCrimeType)">
    <rect width="1080" height="1080" fill="#fff"/>
    <path id="Path_83" data-name="Path 83" d="M435.57,678.207c-60.444,3.621-124.087,6.674-178.411-18.99-41.82-19.768-73.463-54.485-103.919-88.29C97.276,508.78,39.767,444.074,15.618,365.346.273,315.454-.82,262.645.336,210.644c1-46.734,4.589-96.251,32.673-134.455C58.5,41.531,101.1,21.329,144.451,12.859s88.074-6.525,132.283-5.1q239.261,7.707,478.584-6.18c35.3-2.05,71.98-4.25,104.746,8.455,17.749,6.884,33.469,17.852,47.893,29.929,63.5,53.049,104.075,127.856,126.57,205.671,11.614,40.18,18.733,82.05,14.877,123.576-8.43,88.9-69.295,169.1-149.657,214.23-76.788,43.112-157.665,48.769-244.319,48.111-39.135-.3-62.707,20.052-100.25,30.752-38.667,10.984-79.582,13.513-119.607,15.907Z" transform="translate(1159.651 452.246) rotate(139)" fill="#e1eafe"/>
    <g id="law" transform="translate(75.777 135.468)">
      <rect id="Rectangle_82" data-name="Rectangle 82" width="86.684" height="288.947" rx="1.5" transform="translate(138.625 351.635) rotate(-45)" fill="#4951e2"/>
      <path id="Path_75" data-name="Path 75" d="M1.5,0H85.184a1.5,1.5,0,0,1,1.5,1.5V287.447a1.5,1.5,0,0,1-1.5,1.5H1.5a1.5,1.5,0,0,1-1.5-1.5V1.5A1.5,1.5,0,0,1,1.5,0Z" transform="translate(424.642 65.592) rotate(-45)" fill="#4951e2"/>
      <path id="Path_76" data-name="Path 76" d="M0,0H317.842V231.158H0Z" transform="translate(220.318 310.781) rotate(-45)" fill="#6576ef"/>
      <path id="Path_61" data-name="Path 61" d="M887.337,451.373h0a43.342,43.342,0,0,1-61.286,0L451.576,76.9l61.286-61.286L887.337,390.087A43.342,43.342,0,0,1,887.337,451.373ZM29.395,388.035H405.026a28.9,28.9,0,0,1,28.895,28.895v57.79H.5V416.93A28.9,28.9,0,0,1,29.395,388.035Zm28.895-86.684H376.132a28.9,28.9,0,0,1,28.895,28.895v57.789H29.395V330.246a28.9,28.9,0,0,1,28.895-28.895Z" transform="translate(13.947 315.6)" fill="#4951e2"/>
      <path id="Path_62" data-name="Path 62" d="M911.513,692.665,547.237,328.389l66.978-66.978a56.2,56.2,0,0,0,55.594-14.765,57.79,57.79,0,0,0,0-81.714l-143-143.145A57.472,57.472,0,0,0,430.3,77.438L214.341,293.4a58.714,58.714,0,0,0-55.3,14.447,57.789,57.789,0,0,0,0,81.743l143.029,143a57.587,57.587,0,0,0,96.48-55.594l66.978-66.978L829.8,774.379a57.785,57.785,0,1,0,81.72-81.72ZM465.523,42.331a28.895,28.895,0,0,1,40.886,0l143,143.029a28.893,28.893,0,1,1-40.86,40.86L465.523,83.188A28.9,28.9,0,0,1,465.523,42.331ZM363.351,512.275a29.617,29.617,0,0,1-40.857,0l-143.029-143a28.9,28.9,0,1,1,40.857-40.886L363.351,471.418A28.9,28.9,0,0,1,363.351,512.275Zm20.457-61.286L240.78,307.845l204.2-204.2L588.008,246.675ZM891.085,753.951a28.9,28.9,0,0,1-40.857,0L485.952,389.675l40.886-40.886,364.247,364.3A28.9,28.9,0,0,1,891.085,753.951ZM433.421,689.024v-46a43.342,43.342,0,0,0-43.342-43.342H72.237a43.342,43.342,0,0,0-43.342,43.342v46A43.342,43.342,0,0,0,0,729.708V787.5a14.447,14.447,0,0,0,14.447,14.447H447.868A14.447,14.447,0,0,0,462.316,787.5v-57.79A43.342,43.342,0,0,0,433.421,689.024Zm-375.632-46a14.447,14.447,0,0,1,14.447-14.447H390.079a14.447,14.447,0,0,1,14.447,14.447v43.342H57.789ZM433.421,773.05H28.895V729.708a14.447,14.447,0,0,1,14.447-14.447H418.974a14.447,14.447,0,0,1,14.447,14.447Z" transform="translate(0 2.822)" fill="#2f3480"/>
    </g>
  </g>
</svg>
