<svg xmlns="http://www.w3.org/2000/svg" xmlns:xlink="http://www.w3.org/1999/xlink" width="1080" height="1080" viewBox="0 0 1080 1080">
  <defs>
    <clipPath id="clip-uspOpenData">
      <rect width="1080" height="1080"/>
    </clipPath>
  </defs>
  <g id="uspOpenData" clip-path="url(#clip-uspOpenData)">
    <rect width="1080" height="1080" fill="#fff"/>
    <path id="Path_83" data-name="Path 83" d="M485.467,114c-58.552-3.481-120.2-6.416-172.829,18.255-40.512,19-71.164,52.378-100.667,84.875C157.758,276.874,102.048,339.077,78.655,414.759c-14.865,47.961-15.923,98.728-14.8,148.718C64.818,608.4,68.3,656.005,95.5,692.732c24.694,33.317,65.962,52.737,107.956,60.88s85.318,6.272,128.144,4.905q231.775-7.409,463.61,5.941c34.191,1.971,69.727,4.086,101.469-8.128,17.194-6.617,32.422-17.162,46.394-28.771,61.516-51,100.818-122.91,122.609-197.715,11.251-38.625,18.146-78.876,14.411-118.8-8.166-85.465-67.126-162.557-144.975-205.944-74.385-41.445-152.732-46.883-236.674-46.25-37.911.288-60.745-19.277-97.114-29.562C563.874,118.733,524.239,116.3,485.467,114Z" transform="translate(803.535 -127.45) rotate(72)" fill="#e1eafe"/>
    <g id="open-door" transform="translate(257.389 149.131)">
      <path id="Path_90" data-name="Path 90" d="M38,6H168.291a26.058,26.058,0,0,1,26.058,26.058v573.28A26.058,26.058,0,0,1,168.291,631.4H38V6Z" transform="translate(348.844 72.167)" fill="#4951e2"/>
      <path id="Path_91" data-name="Path 91" d="M369.707,756.176,30.951,688.424A26.058,26.058,0,0,1,10,662.887V94.819A26.058,26.058,0,0,1,30.951,69.256L369.707,1.5a26.058,26.058,0,0,1,31.166,25.563V730.639a26.058,26.058,0,0,1-31.166,25.537Z" transform="translate(12.029 12.012)" fill="#6576ef"/>
      <path id="Path_92" data-name="Path 92" d="M22.029,182.4A13.029,13.029,0,0,0,9,195.429V674.9a39.192,39.192,0,0,0,31.413,38.319L379.169,780.97a39.572,39.572,0,0,0,7.674.769,39.087,39.087,0,0,0,39.087-39.087V716.593h91.2a39.087,39.087,0,0,0,39.087-39.087V104.226a39.087,39.087,0,0,0-39.087-39.087h-91.2V39.08A39.087,39.087,0,0,0,379.169.762L40.413,68.513A39.192,39.192,0,0,0,9,106.831v36.481a13.029,13.029,0,1,0,26.058,0V106.831A13.03,13.03,0,0,1,45.484,94.062L384.238,26.312A13.1,13.1,0,0,1,399.873,39.08V742.651a13.042,13.042,0,0,1-15.583,12.782L45.534,687.681A13.029,13.029,0,0,1,35.11,674.913V195.429A13.029,13.029,0,0,0,22.029,182.4ZM517.134,91.2a13.029,13.029,0,0,1,13.029,13.029v573.28a13.029,13.029,0,0,1-13.029,13.029h-91.2V91.2Z" transform="translate(0 0)" fill="#2f3480"/>
      <path id="Path_93" data-name="Path 93" d="M59.058,92.145V40.029a13.029,13.029,0,0,0-26.058,0V92.145a13.029,13.029,0,0,0,26.058,0Z" transform="translate(288.698 324.778)" fill="#2f3480"/>
    </g>
  </g>
</svg>
