<svg xmlns="http://www.w3.org/2000/svg" xmlns:xlink="http://www.w3.org/1999/xlink" width="1080" height="1080" viewBox="0 0 1080 1080">
  <defs>
    <clipPath id="clip-uspRealTime">
      <rect width="1080" height="1080"/>
    </clipPath>
  </defs>
  <g id="uspRealTime" clip-path="url(#clip-uspRealTime)">
    <rect width="1080" height="1080" fill="#fff"/>
    <path id="Path_83" data-name="Path 83" d="M499.095,114.093c-60.444-3.621-124.087-6.674-178.411,18.99-41.82,19.768-73.463,54.485-103.919,88.29C160.8,283.52,103.292,348.226,79.143,426.954c-15.345,49.891-16.438,102.7-15.283,154.7,1,46.734,4.589,96.251,32.673,134.455,25.492,34.658,68.093,54.859,111.443,63.329s88.074,6.525,132.283,5.1q239.261-7.707,478.584,6.18c35.3,2.05,71.98,4.25,104.746-8.455,17.749-6.884,33.469-17.853,47.893-29.929,63.5-53.049,104.075-127.856,126.569-205.671,11.614-40.18,18.733-82.05,14.877-123.576-8.43-88.9-69.295-169.1-149.657-214.231-76.788-43.112-157.665-48.769-244.319-48.111-39.135.3-62.707-20.052-100.25-30.752-38.667-10.984-79.582-13.513-119.607-15.907Z" transform="translate(432.202 -187.387) rotate(41)" fill="#e1eafe"/>
    <g id="liveUpdate" transform="translate(237.164 98.571)">
      <path id="Path_63" data-name="Path 63" d="M80.906,30.3,10.9,244H279.871L233.815,103.991C178.547,92.937,125.121,67.145,80.906,30.3Z" transform="translate(90.598 528.343)" fill="#839af6"/>
      <path id="Path_64" data-name="Path 64" d="M26.9,30.3,14,67.145a393.047,393.047,0,0,0,178.7,79.218l-12.9-42.372C124.536,92.937,71.11,67.145,26.9,30.3Z" transform="translate(144.608 528.343)" fill="#1c1e4a" opacity="0.15"/>
      <path id="Path_65" data-name="Path 65" d="M292.689,356.209H23.718c-3.685,0-9.211-1.842-11.054-5.527s-3.685-7.369-1.842-12.9L112.146,33.811a13.854,13.854,0,0,1,12.9-9.211h68.164a13.854,13.854,0,0,1,12.9,9.211L307.427,337.786c1.842,3.685,0,9.211-1.842,12.9C301.9,354.366,298.216,356.209,292.689,356.209ZM43.983,328.574H274.266L182.153,52.234h-47.9Z" transform="translate(75.938 429.034)" fill="#2f3480"/>
      <path id="Path_66" data-name="Path 66" d="M380.481,41.9H61.768C30.449,41.9,6.5,65.849,6.5,97.168V139.54H435.749V97.168C435.749,65.849,411.8,41.9,380.481,41.9Z" transform="translate(13.938 730.447)" fill="#3237a1"/>
      <path id="Path_67" data-name="Path 67" d="M449.687,168.117H20.438A14.531,14.531,0,0,1,5.7,153.378V111.006A69.975,69.975,0,0,1,75.706,41H394.419a69.975,69.975,0,0,1,70.006,70.006v42.372A14.531,14.531,0,0,1,449.687,168.117ZM33.334,140.482H434.949V111.006c0-22.107-18.423-42.372-42.372-42.372H75.706c-22.107,0-42.372,18.423-42.372,42.372Z" transform="translate(0 714.766)" fill="#2f3480"/>
      <path id="Path_68" data-name="Path 68" d="M115.223.8c-143.7,143.7-143.7,375.823,0,519.52s375.823,143.7,519.52,0Z" transform="translate(30.49 14.374)" fill="#6576ef"/>
      <path id="Path_69" data-name="Path 69" d="M387.614,656.284c-101.325,0-197.123-40.53-268.971-112.378-149.224-149.224-149.224-390.561,0-539.785a14.457,14.457,0,0,1,20.265,0l519.52,519.52a13.356,13.356,0,0,1,0,18.423C586.579,617.6,490.781,656.284,387.614,656.284ZM127.854,35.439C-1.1,173.609,2.58,391,137.066,525.482,203.387,591.8,291.816,628.649,387.614,628.649c90.271,0,175.016-33.161,239.5-93.956Z" transform="translate(17.858 0)" fill="#2f3480"/>
      <path id="Path_70" data-name="Path 70" d="M70.795.8C46.845,24.75,26.58,52.384,10,81.86L509.255,581.115c29.476-16.58,55.268-35,81.06-60.795Z" transform="translate(74.918 14.374)" fill="#4951e2"/>
      <path id="Path_71" data-name="Path 71" d="M523.45,606.642a14.072,14.072,0,0,1-9.211-3.685L13.142,103.7c-3.685-3.685-5.527-11.054-1.842-16.58C27.88,55.8,49.987,28.17,73.937,4.22a14.457,14.457,0,0,1,20.265,0l519.52,519.52a13.356,13.356,0,0,1,0,18.423c-23.95,23.95-51.584,46.057-82.9,62.637a13.926,13.926,0,0,1-7.369,1.842ZM40.776,90.807,525.293,575.324a683.809,683.809,0,0,0,58.953-42.372L83.148,33.7C68.41,50.277,53.672,70.542,40.776,90.807Z" transform="translate(62.565 1.742)" fill="#2f3480"/>
      <circle id="Ellipse_16" data-name="Ellipse 16" cx="40.53" cy="40.53" r="40.53" transform="translate(497.586 101.76)" fill="#2f3480"/>
      <path id="Path_72" data-name="Path 72" d="M86.868,115.236c-29.476,0-55.268-23.95-55.268-55.268S55.549,4.7,86.868,4.7s55.268,23.95,55.268,55.268S118.187,115.236,86.868,115.236Zm0-82.9c-14.738,0-27.634,12.9-27.634,27.634S72.13,87.6,86.868,87.6,114.5,74.706,114.5,59.968,101.606,32.334,86.868,32.334Z" transform="translate(451.248 82.322)" fill="#2f3480"/>
      <path id="Path_73" data-name="Path 73" d="M138.9,189.826a14.072,14.072,0,0,1-9.211-3.685L28.368,84.817c-3.685-3.685-5.527-7.369-3.685-12.9s3.685-9.211,9.211-9.211L188.645,9.283a14.328,14.328,0,0,1,14.738,3.685,14.328,14.328,0,0,1,3.685,14.738L153.642,182.457a22.2,22.2,0,0,1-9.211,9.211C140.746,189.826,138.9,189.826,138.9,189.826ZM63.371,81.132l70.006,70.006L170.223,44.287,63.371,81.132Z" transform="translate(318.152 149.587)" fill="#2f3480"/>
    </g>
  </g>
</svg>
