<svg xmlns="http://www.w3.org/2000/svg" xmlns:xlink="http://www.w3.org/1999/xlink" width="1080" height="1080" viewBox="0 0 1080 1080">
  <defs>
    <clipPath id="clip-uspSumData">
      <rect width="1080" height="1080"/>
    </clipPath>
  </defs>
  <g id="uspSumData" clip-path="url(#clip-uspSumData)">
    <rect width="1080" height="1080" fill="#fff"/>
    <path id="Path_83" data-name="Path 83" d="M485.467,114c-58.552-3.481-120.2-6.416-172.829,18.255-40.512,19-71.164,52.378-100.667,84.875C157.758,276.874,102.048,339.077,78.655,414.759c-14.865,47.961-15.923,98.728-14.8,148.718C64.818,608.4,68.3,656.005,95.5,692.732c24.694,33.317,65.962,52.737,107.956,60.88s85.318,6.272,128.144,4.905q231.775-7.409,463.61,5.941c34.191,1.971,69.727,4.086,101.469-8.128,17.194-6.617,32.422-17.162,46.394-28.771,61.516-51,100.818-122.91,122.609-197.715,11.251-38.625,18.146-78.876,14.411-118.8-8.166-85.465-67.126-162.557-144.975-205.944-74.385-41.445-152.732-46.883-236.674-46.25-37.911.288-60.745-19.277-97.114-29.562C563.874,118.733,524.239,116.3,485.467,114Z" transform="matrix(-0.259, 0.966, -0.966, -0.259, 1135.044, 113.227)" fill="#e1eafe"/>
    <path id="Path_77" data-name="Path 77" d="M364.043-1.781C485.777-1.781,658,146.627,658,327.5S510.7,655,329,655,0,508.373,0,327.5A325.055,325.055,0,0,1,58.261,141.373C99.8,165.358,321.574,313.536,321.574,313.536s14.624-59.679,42.469-74.9C372.616,149.476,352.957-1.25,364.043-1.781Z" transform="translate(172 213)" fill="#6576ef"/>
    <g id="Path_78" data-name="Path 78" transform="translate(626 596)" fill="#839af6">
      <path d="M 164.0925445556641 333.5 L 0.5 333.5 L 0.5 0.5 L 282.5 0.5 L 282.5 214.9250335693359 L 231.2268218994141 290.2206726074219 L 164.0925445556641 333.5 Z" stroke="none"/>
      <path d="M 1 1 L 1 333 L 163.9453277587891 333 L 230.8707122802734 289.8553161621094 L 282 214.7709655761719 L 282 1 L 1 1 M 0 0 L 283 0 L 283 215.0790863037109 L 231.5830078125 290.5859069824219 L 164.23974609375 334 L 0 334 L 0 0 Z" stroke="none" fill="#707070"/>
    </g>
    <path id="Path_80" data-name="Path 80" d="M0-7.971s37.38-65.078,104.589-98.166,164.247-34.186,164.247-34.186L259.4,174.422Z" transform="translate(274 286)" fill="#4951e2"/>
    <g id="SvgjsG1016" transform="translate(154.178 131.034)">
      <g id="Layer_1" data-name="Layer 1" transform="translate(4.01 3.259)">
        <path id="Path_79" data-name="Path 79" d="M0,0H121L0,119.861Z" transform="translate(642.812 681.707)" fill="#6576ef"/>
        <path id="Path_59" data-name="Path 59" d="M767.385,692.761c.57-.154-.052-205.028.171-205.475a40.969,40.969,0,0,0-40.923-40.923H685.582c16.155-171.407-106.321-345.632-285.277-370.6V30.61a27.615,27.615,0,0,0-8.459-19.822,26.518,26.518,0,0,0-19.742-7.5A344.528,344.528,0,0,0,111.617,139.445a26.7,26.7,0,0,0-5.129,20.5,27.587,27.587,0,0,0,11.443,18.284L332.1,327.223v58.7L96.291,221.878A27.391,27.391,0,0,0,57.778,229.4c-172.391,276.811,99.362,605.478,396.032,505.1v39.244a40.968,40.968,0,0,0,40.923,40.923H644.786a13.7,13.7,0,0,0,9.644-4L763.559,701.547a14,14,0,0,0,3.826-8.786ZM133.324,155.971A317.336,317.336,0,0,1,373.236,30.543c-.213.067-.213,291.912-.213,291.912ZM31.995,412.028a313.193,313.193,0,0,1,48.57-167.783c.08-.152,248.838,173.108,248.917,173.092L230.664,703.9A313.855,313.855,0,0,1,31.995,412.028ZM345.741,725.774A314.008,314.008,0,0,1,256.514,712.8l98.321-285.3a76.651,76.651,0,0,0,4.547-15.471V345.8a27.207,27.207,0,0,0,40.923-23.349V103.414C564.626,129.309,674.4,289.345,658.07,446.362H494.734a40.968,40.968,0,0,0-40.923,40.923V706.026A308.542,308.542,0,0,1,345.741,725.774ZM481.093,773.75V487.286a13.659,13.659,0,0,1,13.641-13.641h231.9a13.659,13.659,0,0,1,13.641,13.641V678.262H672.068a40.968,40.968,0,0,0-40.923,40.923v68.206H494.734a13.659,13.659,0,0,1-13.641-13.642ZM658.427,768.1c.784-73.7-10.9-61.706,62.557-62.557Z" transform="translate(-4.01 -3.259)" fill="#2f3480"/>
        <path id="Path_60" data-name="Path 60" d="M55.628,68.026H164.757a13.642,13.642,0,1,0,0-27.285l-109.129,0a13.642,13.642,0,1,0,0,27.285Zm95.488,40.923a13.642,13.642,0,0,0-13.64-13.641H55.628a13.641,13.641,0,0,0,0,27.282h81.847A13.641,13.641,0,0,0,151.115,108.949Z" transform="translate(476.019 470.565)" fill="#3237a1"/>
      </g>
    </g>
  </g>
</svg>
