<svg id="SvgjsSvg1036" width="288" height="288" xmlns="http://www.w3.org/2000/svg" version="1.1" xmlns:xlink="http://www.w3.org/1999/xlink" xmlns:svgjs="http://svgjs.com/svgjs"><defs id="SvgjsDefs1037"></defs><g id="SvgjsG1038"><svg xmlns="http://www.w3.org/2000/svg" data-name="Layer 3" viewBox="0 0 24 24" width="288" height="288"><path d="M20.207 4.793a1 1 0 0 0-1.414 0L12.5 11.086a2 2 0 0 0 0 2.828l6.293 6.293a1 1 0 0 0 1.414-1.414L13.914 12.5l6.293-6.293a1 1 0 0 0 0-1.414Z" fill="#363abf" class="color000 svgShape"></path><path d="M12.207 20.207a1 1 0 0 0 0-1.414L5.914 12.5l6.293-6.293a1 1 0 1 0-1.414-1.414L4.5 11.086a2 2 0 0 0 0 2.828l6.293 6.293a1 1 0 0 0 1.414 0Z" fill="#363abf" class="color000 svgShape"></path></svg></g></svg>